<svg width="16" height="28" viewBox="0 0 16 28" fill="none" xmlns="http://www.w3.org/2000/svg">
<path d="M13.7146 1.90735e-06C14.2995 1.90735e-06 14.8846 0.22785 15.3304 0.68355C16.2232 1.59495 16.2232 3.07141 15.3304 3.98281L5.51464 13.9991L15.3304 24.0172C16.2232 24.9286 16.2232 26.4051 15.3304 27.3165C14.4375 28.2278 12.9911 28.2278 12.0982 27.3165L0.669642 15.6505C-0.223215 14.7391 -0.223215 13.2627 0.669642 12.3513L12.0982 0.685373C12.5446 0.226028 13.1296 1.90735e-06 13.7146 1.90735e-06Z" fill="#949494"/>
<path d="M13.7146 1.90735e-06C14.2995 1.90735e-06 14.8846 0.22785 15.3304 0.68355C16.2232 1.59495 16.2232 3.07141 15.3304 3.98281L5.51464 13.9991L15.3304 24.0172C16.2232 24.9286 16.2232 26.4051 15.3304 27.3165C14.4375 28.2278 12.9911 28.2278 12.0982 27.3165L0.669642 15.6505C-0.223215 14.7391 -0.223215 13.2627 0.669642 12.3513L12.0982 0.685373C12.5446 0.226028 13.1296 1.90735e-06 13.7146 1.90735e-06Z" stroke="#666666"/>
</svg>
