<svg width="167" height="35" viewBox="0 0 167 35" fill="none" xmlns="http://www.w3.org/2000/svg">
<g clip-path="url(#clip0_132_29)">
<path d="M13.4269 34.5497H0V34.0995C2.12865 34.0995 2.86548 31.1521 2.86548 27.8363V6.75436C2.86548 3.72512 2.16959 0.368406 0 0.368406V0H13.4269C20.2222 0 27.5906 7.02707e-05 27.5906 8.51469C27.5906 15.8422 18.8304 16.7018 17.8479 16.7018C21.0409 16.7018 30.1286 17.234 30.1286 25.6258C30.1286 34.0176 21.9006 34.5497 13.4269 34.5497ZM11.5029 0.61401V16.7427H13.1813C15.8011 16.7427 19.1579 15.7603 19.1579 8.35091C19.1579 0.941556 15.0643 0.61401 12.7719 0.61401H11.5029ZM12.9766 17.3568H11.5029V33.7311H12.8129C16.9064 33.7311 21 33.7311 21 25.5439C21 17.3568 16.2515 17.3568 12.9766 17.3568Z" fill="#1D1D1B"/>
<path d="M58.2515 31.4386C57.7394 32.5813 56.8859 33.5372 55.8083 34.175C54.7307 34.8128 53.482 35.101 52.2339 35C52.2339 35 47.3216 35 46.8304 30.9064C46.2546 32.2211 45.2819 33.3225 44.0486 34.0566C42.8154 34.7907 41.3833 35.1206 39.9532 35C39.0117 35 34.0585 34.5906 34.0585 29.9649C34.0585 25.3392 38.152 24.152 46.7485 22.0234V18.9532C46.7485 13.8362 43.924 11.2163 40.5263 12.9356C39.7485 13.345 39.0526 14.1228 40.076 14.4094C40.4701 14.5102 40.8382 14.6937 41.1558 14.9478C41.4734 15.2019 41.7333 15.5207 41.9181 15.883C42.2451 16.6107 42.2878 17.4345 42.0377 18.1921C41.7877 18.9498 41.2631 19.5864 40.5672 19.9766C39.9443 20.3781 39.1984 20.5441 38.464 20.4445C37.7295 20.345 37.0547 19.9865 36.5611 19.4336C36.0674 18.8808 35.7874 18.1698 35.7714 17.4288C35.7554 16.6878 36.0044 15.9655 36.4737 15.3918C37.3557 14.0602 38.588 12.9978 40.0351 12.3216C41.4939 11.5918 43.1125 11.2399 44.7427 11.2982C51.1696 11.2982 53.8304 15.3918 53.8304 21.1228V28.4503C53.8304 28.4503 53.8304 31.9298 56.1638 31.8889C56.1638 31.8889 57.3099 31.8889 57.5965 31.0292L58.2515 31.4386ZM41.5497 28.7369C41.5497 28.7369 41.5497 32.0117 44.1287 32.0117C44.7342 31.9594 45.3093 31.7237 45.7774 31.3361C46.2455 30.9484 46.5843 30.4272 46.7485 29.8421V22.7193C45.2638 22.8346 43.8845 23.5314 42.9109 24.6583C41.9373 25.7852 41.4481 27.2511 41.5497 28.7369Z" fill="#1D1D1B"/>
<path d="M74.2573 18.7076C73.85 18.3819 73.5183 17.9717 73.285 17.5052C73.0518 17.0387 72.9226 16.5271 72.9064 16.0058C72.9064 15.3918 71.1462 15.8011 69.2223 18.7894V28.8187C69.2223 31.5205 69.4678 33.4854 71.2281 33.9766V34.5497H59.9708V33.9766C61.8947 33.3626 61.9356 31.3158 61.9356 28.8187V17.3568C61.9356 15.6375 61.4035 14.9415 59.3977 14.0818V13.4269L69.2223 11.4211V17.6432C72.2515 12.9766 73.9707 12.3217 75.3216 11.7076C76.0449 11.4324 76.8286 11.3555 77.5916 11.485C78.3545 11.6146 79.0689 11.9458 79.6608 12.4444C80.4913 13.161 81.0032 14.1782 81.0838 15.2721C81.1644 16.3661 80.8072 17.4472 80.0907 18.2777C79.3741 19.1083 78.3569 19.6201 77.263 19.7008C76.169 19.7814 75.0879 19.4241 74.2573 18.7076Z" fill="#1D1D1B"/>
<path d="M97.0175 18.7076C96.5985 18.3898 96.2559 17.9822 96.0151 17.5147C95.7742 17.0471 95.6412 16.5315 95.6257 16.0058C95.6257 15.3918 93.8655 15.8011 91.9415 18.7894V28.8187C91.9415 31.5205 92.1871 33.4854 93.9883 33.9766V34.5497H82.731V33.9766C84.6549 33.3626 84.6959 31.3158 84.6959 28.8187V17.3568C84.6959 15.6375 84.1637 14.9415 82.1579 14.0818V13.4269L91.9415 11.4211V17.6432C95.0117 12.9766 96.731 12.3217 98.0409 11.7076C98.7711 11.4331 99.561 11.3566 100.33 11.486C101.1 11.6154 101.821 11.9461 102.421 12.4444C102.833 12.7972 103.17 13.2282 103.414 13.7124C103.658 14.1967 103.803 14.7245 103.841 15.2653C103.879 15.806 103.809 16.3491 103.636 16.8627C103.462 17.3763 103.189 17.8504 102.83 18.2574C102.481 18.6719 102.052 19.0127 101.569 19.2601C101.086 19.5076 100.559 19.6566 100.018 19.6985C99.4773 19.7404 98.9335 19.6744 98.4184 19.5042C97.9033 19.3341 97.4271 19.0633 97.0175 18.7076Z" fill="#1D1D1B"/>
<path d="M113.801 22.7602C113.801 28.9005 116.421 30.9473 119.696 31.8479C121.175 32.1762 122.722 31.9646 124.059 31.2514C125.395 30.5381 126.432 29.3704 126.982 27.9591L127.596 28.2047C126.949 30.3605 125.567 32.2211 123.689 33.4627C121.812 34.7043 119.559 35.2483 117.322 35C114.281 34.9248 111.394 33.6529 109.286 31.4607C107.178 29.2686 106.02 26.3332 106.064 23.2923C105.994 21.7112 106.255 20.1329 106.829 18.6581C107.403 17.1833 108.279 15.8445 109.4 14.7273C110.521 13.6101 111.863 12.7391 113.34 12.1698C114.816 11.6005 116.396 11.3455 117.977 11.421C124.199 11.421 128.292 14.3274 128.292 22.7602H113.801ZM121.784 22.1462C121.784 15.9239 120.433 12.076 117.977 12.076C115.52 12.076 113.883 17.3976 113.883 22.1462H121.784Z" fill="#1D1D1B"/>
<path d="M148.187 30.1695C147.614 31.5992 146.624 32.8238 145.347 33.685C144.07 34.5461 142.564 35.0043 141.023 35.0001C137.175 35.0001 133.778 33.4036 133.778 27.4679V12.4854H131.035V11.8713H133.901V5.28072L141.105 4.25732V11.8713H147.205V12.4854H141.228V27.3451C141.228 30.0878 142.292 31.4387 144.953 31.4387C145.532 31.4292 146.101 31.2834 146.613 31.0132C147.125 30.7429 147.566 30.3558 147.901 29.8831L148.187 30.1695Z" fill="#1D1D1B"/>
<path d="M166.608 30.1695C166.035 31.5992 165.045 32.8238 163.768 33.685C162.491 34.5461 160.985 35.0043 159.444 35.0001C155.596 35.0001 152.199 33.4036 152.199 27.4679V12.4854H149.456V11.8713H152.322V5.28072L159.526 4.25732V11.8713H165.626V12.4854H159.649V27.3451C159.649 30.0878 160.713 31.4387 163.374 31.4387C163.953 31.4292 164.522 31.2834 165.034 31.0132C165.546 30.7429 165.987 30.3558 166.322 29.8831L166.608 30.1695Z" fill="#1D1D1B"/>
</g>
<defs>
<clipPath id="clip0_132_29">
<rect width="166.608" height="35" fill="white"/>
</clipPath>
</defs>
</svg>
