<svg width="144" height="36" viewBox="0 0 144 36" fill="none" xmlns="http://www.w3.org/2000/svg">
<path d="M13.4269 34.5497H0V34.0995C2.12865 34.0995 2.86548 31.1521 2.86548 27.8363V6.75436C2.86548 3.72512 2.16959 0.368406 0 0.368406V0H13.4269C20.2222 0 27.5906 7.05719e-05 27.5906 8.51469C27.5906 15.8422 18.8304 16.7018 17.8479 16.7018C21.0409 16.7018 30.1286 17.234 30.1286 25.6258C30.1286 34.0176 21.9006 34.5497 13.4269 34.5497ZM11.5029 0.61401V16.7427H13.1813C15.8011 16.7427 19.1579 15.7603 19.1579 8.35091C19.1579 0.941556 15.0643 0.61401 12.7719 0.61401H11.5029ZM12.9766 17.3568H11.5029V33.7311H12.8129C16.9064 33.7311 21 33.7311 21 25.5439C21 17.3568 16.2515 17.3568 12.9766 17.3568Z" fill="#1D1D1B"/>
<path d="M58.2516 31.4386C57.7395 32.5813 56.886 33.5372 55.8084 34.175C54.7308 34.8128 53.4821 35.101 52.234 35C52.234 35 47.3217 35 46.8305 30.9064C46.2547 32.2211 45.282 33.3225 44.0487 34.0566C42.8155 34.7907 41.3834 35.1206 39.9533 35C39.0118 35 34.0586 34.5906 34.0586 29.9649C34.0586 25.3392 38.1521 24.152 46.7486 22.0234V18.9532C46.7486 13.8362 43.9241 11.2163 40.5264 12.9356C39.7486 13.345 39.0527 14.1228 40.0761 14.4094C40.4702 14.5102 40.8383 14.6937 41.1559 14.9478C41.4735 15.2019 41.7334 15.5207 41.9182 15.883C42.2452 16.6107 42.2879 17.4345 42.0378 18.1921C41.7878 18.9498 41.2632 19.5864 40.5673 19.9766C39.9444 20.3781 39.1985 20.5441 38.4641 20.4445C37.7296 20.345 37.0548 19.9865 36.5612 19.4336C36.0675 18.8808 35.7875 18.1698 35.7715 17.4288C35.7555 16.6878 36.0045 15.9655 36.4738 15.3918C37.3558 14.0602 38.5881 12.9978 40.0352 12.3216C41.494 11.5918 43.1126 11.2399 44.7428 11.2982C51.1697 11.2982 53.8305 15.3918 53.8305 21.1228V28.4503C53.8305 28.4503 53.8305 31.9298 56.1639 31.8889C56.1639 31.8889 57.31 31.8889 57.5966 31.0292L58.2516 31.4386ZM41.5498 28.7369C41.5498 28.7369 41.5498 32.0117 44.1288 32.0117C44.7343 31.9594 45.3094 31.7237 45.7775 31.3361C46.2456 30.9484 46.5844 30.4272 46.7486 29.8421V22.7193C45.2639 22.8346 43.8846 23.5314 42.911 24.6583C41.9374 25.7852 41.4482 27.2511 41.5498 28.7369Z" fill="#1D1D1B"/>
<path d="M74.2571 18.7076C73.8498 18.3819 73.5181 17.9717 73.2848 17.5052C73.0516 17.0387 72.9224 16.5271 72.9062 16.0058C72.9062 15.3918 71.146 15.8011 69.2221 18.7894V28.8187C69.2221 31.5205 69.4676 33.4854 71.2279 33.9766V34.5497H59.9706V33.9766C61.8945 33.3626 61.9354 31.3158 61.9354 28.8187V17.3568C61.9354 15.6375 61.4033 14.9415 59.3975 14.0818V13.4269L69.2221 11.4211V17.6432C72.2513 12.9766 73.9705 12.3217 75.3214 11.7076C76.0447 11.4324 76.8284 11.3555 77.5914 11.485C78.3543 11.6146 79.0687 11.9458 79.6606 12.4444C80.4911 13.161 81.003 14.1782 81.0836 15.2721C81.1642 16.3661 80.807 17.4472 80.0905 18.2777C79.3739 19.1083 78.3567 19.6201 77.2628 19.7008C76.1688 19.7814 75.0877 19.4241 74.2571 18.7076Z" fill="#1D1D1B"/>
<path d="M90.7481 22.5028C90.7481 28.6431 93.3681 30.6899 96.6431 31.5905C98.1221 31.9188 99.6691 31.7072 101.006 30.994C102.342 30.2807 103.379 29.113 103.929 27.7017L104.543 27.9473C103.896 30.1031 102.514 31.9637 100.636 33.2053C98.7591 34.4469 96.5061 34.9909 94.2691 34.7426C91.2281 34.6674 88.3411 33.3955 86.2331 31.2033C84.1251 29.0112 82.9671 26.0758 83.0111 23.0349C82.9411 21.4538 83.2021 19.8755 83.7761 18.4007C84.3501 16.9259 85.2261 15.5871 86.3471 14.4699C87.4681 13.3527 88.8101 12.4817 90.2871 11.9124C91.7631 11.3431 93.3431 11.0881 94.9241 11.1636C101.146 11.1636 105.239 14.07 105.239 22.5028H90.7481ZM98.7311 21.8888C98.7311 15.6665 97.3801 11.8186 94.9241 11.8186C92.4671 11.8186 90.8301 17.1402 90.8301 21.8888H98.7311Z" fill="#1D1D1B"/>
<path d="M125.134 29.9122C124.561 31.3419 123.571 32.5665 122.294 33.4277C121.017 34.2888 119.511 34.747 117.97 34.7428C114.122 34.7428 110.725 33.1463 110.725 27.2106V12.2281H107.982V11.614H110.848V5.0234L118.052 4V11.614H124.152V12.2281H118.175V27.0878C118.175 29.8305 119.239 31.1814 121.9 31.1814C122.479 31.1719 123.048 31.0261 123.56 30.7559C124.072 30.4856 124.513 30.0985 124.848 29.6258L125.134 29.9122Z" fill="#1D1D1B"/>
<path d="M143.555 29.9122C142.982 31.3419 141.992 32.5665 140.715 33.4277C139.438 34.2888 137.932 34.747 136.391 34.7428C132.543 34.7428 129.146 33.1463 129.146 27.2106V12.2281H126.403V11.614H129.269V5.0234L136.473 4V11.614H142.573V12.2281H136.596V27.0878C136.596 29.8305 137.66 31.1814 140.321 31.1814C140.9 31.1719 141.469 31.0261 141.981 30.7559C142.493 30.4856 142.934 30.0985 143.269 29.6258L143.555 29.9122Z" fill="#1D1D1B"/>
</svg>
